<?xml version="1.0" encoding="UTF-8"?>
<svg xmlns="http://www.w3.org/2000/svg" xmlns:xlink="http://www.w3.org/1999/xlink" width="62px" height="62px" viewBox="0 0 62 62" version="1.1">
<g id="surface1">
<path style=" stroke:none;fill-rule:nonzero;fill:rgb(0%,0%,0%);fill-opacity:1;" d="M 29.367188 4.214844 C 26.75 4.449219 24.5625 4.863281 22.734375 5.472656 C 17.820312 7.113281 13.890625 9.742188 10.636719 13.542969 C 7.15625 17.625 5.0625 22.371094 4.457031 27.578125 C 4.300781 28.929688 4.292969 29.085938 4.292969 30.65625 C 4.300781 34.867188 5.195312 38.761719 7.023438 42.472656 C 9.023438 46.535156 12.03125 50.035156 15.761719 52.65625 C 19.972656 55.613281 24.988281 57.269531 30.214844 57.433594 C 34.269531 57.566406 38.828125 56.597656 42.550781 54.820312 C 44.648438 53.820312 46.742188 52.445312 48.589844 50.859375 C 49.339844 50.21875 50.933594 48.566406 51.652344 47.679688 C 54.675781 43.976562 56.613281 39.675781 57.390625 34.964844 C 57.703125 33.101562 57.730469 32.714844 57.730469 30.789062 C 57.730469 28.808594 57.671875 27.996094 57.398438 26.378906 C 56.828125 22.964844 55.472656 19.503906 53.464844 16.339844 C 51.476562 13.230469 48.933594 10.691406 45.609375 8.519531 C 44.40625 7.730469 43.792969 7.378906 42.550781 6.789062 C 39.792969 5.457031 36.964844 4.660156 33.816406 4.328125 C 32.960938 4.238281 29.957031 4.160156 29.367188 4.214844 Z M 32.574219 5.386719 C 33.15625 5.425781 33.863281 5.480469 34.148438 5.515625 C 41.511719 6.425781 48.160156 10.488281 52.148438 16.511719 C 54.675781 20.320312 56.144531 24.4375 56.496094 28.667969 C 56.585938 29.753906 56.53125 32.398438 56.40625 33.453125 C 55.910156 37.484375 54.578125 41.269531 52.53125 44.472656 C 50.242188 48.050781 47.261719 50.859375 43.492188 53.003906 C 40.929688 54.457031 38.484375 55.308594 35.347656 55.847656 C 32.882812 56.273438 29.699219 56.308594 27.199219 55.9375 C 21.960938 55.171875 17.363281 52.953125 13.570312 49.363281 C 10.769531 46.710938 8.617188 43.546875 7.273438 40.113281 C 6.425781 37.9375 5.855469 35.601562 5.59375 33.148438 C 5.457031 31.894531 5.457031 29.226562 5.59375 27.992188 C 5.789062 26.175781 6.167969 24.46875 6.773438 22.644531 C 7.210938 21.335938 7.488281 20.675781 8.179688 19.3125 C 10.003906 15.710938 12.78125 12.4375 15.964844 10.148438 C 20.730469 6.726562 26.582031 5.050781 32.574219 5.386719 Z M 32.574219 5.386719 "/>
<path style=" stroke:none;fill-rule:nonzero;fill:rgb(0%,0%,0%);fill-opacity:1;" d="M 30.601562 13.652344 C 29.878906 13.8125 29.296875 14.234375 29.0625 14.785156 C 28.949219 15.050781 28.929688 15.179688 28.953125 15.628906 C 28.976562 16.082031 29.003906 16.195312 29.160156 16.449219 C 29.488281 16.976562 29.941406 17.207031 31.679688 17.714844 C 32.113281 17.84375 32.386719 18.109375 32.433594 18.460938 C 32.464844 18.683594 32.445312 18.726562 32.230469 18.945312 C 32.03125 19.144531 31.945312 19.1875 31.648438 19.222656 C 30.832031 19.328125 30.273438 19.023438 30.195312 18.4375 L 30.171875 18.253906 L 28.789062 18.253906 L 28.800781 18.601562 C 28.832031 19.476562 29.566406 20.214844 30.605469 20.410156 C 31.121094 20.507812 32.042969 20.445312 32.464844 20.28125 C 32.871094 20.132812 33.363281 19.714844 33.585938 19.328125 C 33.730469 19.085938 33.753906 18.964844 33.773438 18.464844 C 33.796875 17.933594 33.785156 17.855469 33.644531 17.578125 C 33.347656 16.996094 32.863281 16.699219 31.746094 16.40625 C 30.871094 16.179688 30.539062 16.027344 30.425781 15.796875 C 30.308594 15.585938 30.308594 15.476562 30.425781 15.265625 C 30.613281 14.902344 31.386719 14.710938 31.867188 14.917969 C 32.097656 15.015625 32.394531 15.335938 32.394531 15.5 C 32.394531 15.785156 32.429688 15.800781 33.125 15.800781 L 33.785156 15.800781 L 33.785156 15.53125 C 33.785156 14.917969 33.347656 14.222656 32.78125 13.914062 C 32.441406 13.730469 31.691406 13.5625 31.261719 13.570312 C 31.101562 13.570312 30.800781 13.609375 30.601562 13.652344 Z M 30.601562 13.652344 "/>
<path style=" stroke:none;fill-rule:nonzero;fill:rgb(0%,0%,0%);fill-opacity:1;" d="M 16.53125 16.984375 L 16.53125 20.28125 L 17.667969 20.28125 L 17.699219 19.871094 C 17.714844 19.648438 17.734375 18.648438 17.734375 17.65625 C 17.734375 16.664062 17.746094 15.832031 17.757812 15.820312 C 17.78125 15.800781 19.253906 18.195312 20.214844 19.8125 L 20.496094 20.28125 L 22.039062 20.28125 L 22.027344 16.996094 L 22.007812 13.714844 L 20.796875 13.714844 L 20.78125 15.9375 C 20.773438 17.351562 20.742188 18.164062 20.707031 18.164062 C 20.671875 18.164062 20.648438 18.140625 20.648438 18.109375 C 20.648438 18.078125 20.472656 17.769531 20.257812 17.425781 C 20.046875 17.082031 19.597656 16.335938 19.253906 15.773438 C 18.914062 15.203125 18.484375 14.507812 18.304688 14.210938 L 17.96875 13.683594 L 16.53125 13.683594 Z M 16.53125 16.984375 "/>
<path style=" stroke:none;fill-rule:nonzero;fill:rgb(0%,0%,0%);fill-opacity:1;" d="M 23.535156 13.726562 C 23.511719 13.742188 23.492188 15.234375 23.492188 17.027344 L 23.492188 20.28125 L 28.101562 20.28125 L 28.082031 19.726562 L 28.0625 19.167969 L 26.582031 19.175781 C 25.761719 19.179688 25.042969 19.167969 24.976562 19.15625 C 24.859375 19.125 24.855469 19.085938 24.867188 18.398438 L 24.871094 17.671875 L 26.167969 17.660156 L 27.457031 17.648438 L 27.476562 17.0625 L 27.496094 16.46875 L 26.175781 16.457031 L 24.855469 16.4375 L 24.867188 15.6875 L 24.886719 14.9375 L 26.34375 14.941406 C 27.148438 14.949219 27.875 14.9375 27.953125 14.917969 C 28.09375 14.882812 28.101562 14.871094 28.082031 14.296875 L 28.0625 13.714844 L 25.816406 13.695312 C 24.582031 13.691406 23.558594 13.703125 23.535156 13.726562 Z M 23.535156 13.726562 "/>
<path style=" stroke:none;fill-rule:nonzero;fill:rgb(0%,0%,0%);fill-opacity:1;" d="M 34.597656 13.761719 C 34.578125 13.8125 34.574219 14.082031 34.585938 14.378906 L 34.601562 14.90625 L 35.480469 14.925781 C 35.964844 14.9375 36.375 14.949219 36.40625 14.949219 C 36.429688 14.953125 36.449219 16.152344 36.449219 17.617188 L 36.449219 20.28125 L 37.722656 20.28125 L 37.734375 17.605469 L 37.75 14.929688 L 38.75 14.925781 L 39.75 14.925781 L 39.75 13.714844 L 37.1875 13.695312 C 35.09375 13.683594 34.625 13.695312 34.597656 13.761719 Z M 34.597656 13.761719 "/>
<path style=" stroke:none;fill-rule:nonzero;fill:rgb(0%,0%,0%);fill-opacity:1;" d="M 40.203125 13.714844 C 40.203125 13.761719 41.027344 15.398438 41.742188 16.757812 L 42.382812 17.988281 L 42.382812 20.28125 L 43.65625 20.28125 L 43.65625 18.03125 L 44.070312 17.261719 C 44.296875 16.84375 44.664062 16.160156 44.882812 15.742188 C 45.09375 15.324219 45.417969 14.710938 45.59375 14.386719 C 45.835938 13.917969 45.886719 13.773438 45.820312 13.738281 C 45.78125 13.707031 45.457031 13.691406 45.109375 13.695312 L 44.472656 13.714844 L 43.757812 15.125 L 43.042969 16.527344 L 42.335938 15.125 L 41.625 13.714844 L 40.917969 13.695312 C 40.523438 13.691406 40.203125 13.695312 40.203125 13.714844 Z M 40.203125 13.714844 "/>
<path style=" stroke:none;fill-rule:nonzero;fill:rgb(0%,0%,0%);fill-opacity:1;" d="M 20.828125 24.40625 C 19.109375 24.5625 17.625 25.472656 16.644531 26.957031 C 15.976562 27.972656 15.742188 28.863281 15.742188 30.359375 C 15.742188 30.867188 15.722656 31.296875 15.707031 31.320312 C 15.6875 31.339844 15.324219 31.132812 14.90625 30.867188 C 14.066406 30.328125 12.453125 29.335938 11.929688 29.03125 C 11.746094 28.921875 11.316406 28.667969 10.976562 28.464844 C 10.492188 28.167969 10.316406 28.085938 10.160156 28.105469 C 9.832031 28.136719 9.832031 28.207031 10.082031 30.394531 C 10.128906 30.84375 10.269531 32.082031 10.382812 33.148438 C 11.121094 40.007812 11.140625 40.128906 11.359375 40.347656 C 11.613281 40.601562 11.824219 40.4375 13.90625 38.367188 C 14.851562 37.4375 15.632812 36.683594 15.652344 36.703125 C 15.667969 36.714844 15.710938 36.953125 15.742188 37.222656 C 15.882812 38.324219 16.246094 39.234375 16.90625 40.105469 C 17.511719 40.910156 18.515625 41.582031 19.652344 41.941406 L 20.191406 42.109375 L 30.636719 42.128906 C 37.882812 42.140625 41.234375 42.121094 41.582031 42.078125 C 41.863281 42.042969 42.316406 41.933594 42.601562 41.835938 C 44.199219 41.292969 45.386719 40.140625 45.984375 38.542969 C 46.289062 37.738281 46.324219 37.4375 46.359375 35.613281 C 46.378906 34.675781 46.410156 33.90625 46.433594 33.90625 C 46.457031 33.90625 46.71875 34.058594 47.019531 34.246094 C 47.316406 34.433594 48.160156 34.941406 48.890625 35.371094 C 49.625 35.808594 50.542969 36.347656 50.9375 36.582031 C 51.847656 37.113281 52.023438 37.195312 52.214844 37.121094 C 52.402344 37.046875 52.457031 36.878906 52.410156 36.484375 C 52.386719 36.316406 52.304688 35.347656 52.222656 34.328125 C 52.136719 33.3125 52.046875 32.144531 52.011719 31.726562 C 51.972656 31.308594 51.839844 29.679688 51.707031 28.105469 C 51.5625 26.289062 51.445312 25.210938 51.40625 25.15625 C 51.242188 24.957031 51.023438 25.054688 50.4375 25.5625 C 49.636719 26.257812 47.734375 28.179688 47.046875 28.984375 C 46.730469 29.359375 46.453125 29.660156 46.425781 29.660156 C 46.402344 29.667969 46.367188 29.539062 46.347656 29.378906 C 46.203125 28.316406 45.683594 27.113281 45.035156 26.34375 C 44.101562 25.246094 42.722656 24.539062 41.246094 24.398438 C 40.476562 24.328125 21.617188 24.332031 20.828125 24.40625 Z M 41.789062 25.980469 C 42.855469 26.203125 43.890625 27.023438 44.386719 28.027344 C 44.796875 28.863281 44.773438 28.566406 44.792969 32.96875 C 44.8125 35.867188 44.792969 37.101562 44.746094 37.472656 C 44.582031 38.585938 43.804688 39.652344 42.769531 40.191406 C 41.789062 40.695312 42.765625 40.65625 30.941406 40.65625 L 20.433594 40.65625 L 19.980469 40.519531 C 18.625 40.09375 17.621094 39.011719 17.347656 37.683594 C 17.261719 37.265625 17.257812 36.679688 17.269531 33.117188 L 17.285156 29.03125 L 17.460938 28.558594 C 17.929688 27.277344 18.902344 26.367188 20.175781 26.035156 C 20.605469 25.925781 20.960938 25.921875 31.042969 25.921875 C 38.476562 25.914062 41.558594 25.933594 41.789062 25.980469 Z M 49.703125 28.984375 C 49.449219 29.648438 49.078125 30.171875 48.257812 31.023438 C 47.644531 31.660156 46.511719 32.695312 46.425781 32.695312 C 46.402344 32.695312 46.378906 32.550781 46.378906 32.375 L 46.378906 32.058594 L 48.027344 30.441406 C 48.933594 29.554688 49.695312 28.828125 49.722656 28.828125 C 49.746094 28.820312 49.738281 28.894531 49.703125 28.984375 Z M 15.742188 33.535156 C 15.742188 33.628906 15.667969 33.816406 15.585938 33.941406 C 15.265625 34.410156 12.976562 36.832031 12.898438 36.78125 C 12.835938 36.746094 12.910156 36.40625 13.019531 36.207031 C 13.328125 35.625 15.421875 33.359375 15.644531 33.359375 C 15.710938 33.359375 15.742188 33.414062 15.742188 33.535156 Z M 15.742188 33.535156 "/>
<path style=" stroke:none;fill-rule:nonzero;fill:rgb(0%,0%,0%);fill-opacity:1;" d="M 24.207031 29.84375 C 23.480469 30.078125 22.976562 30.527344 22.625 31.242188 C 22.4375 31.617188 22.433594 31.660156 22.433594 32.390625 C 22.433594 33.117188 22.4375 33.167969 22.625 33.5625 C 23.042969 34.445312 23.996094 35.050781 24.957031 35.054688 C 26.3125 35.054688 27.476562 34.0625 27.664062 32.742188 C 27.832031 31.53125 27.257812 30.46875 26.164062 29.953125 C 25.8125 29.78125 25.691406 29.757812 25.15625 29.746094 C 24.691406 29.734375 24.472656 29.753906 24.207031 29.84375 Z M 25.59375 31.585938 C 25.921875 31.738281 26.066406 32 26.066406 32.433594 C 26.066406 32.835938 25.96875 33.027344 25.664062 33.257812 C 24.921875 33.808594 23.855469 33.105469 24.089844 32.222656 C 24.265625 31.550781 24.925781 31.273438 25.59375 31.585938 Z M 25.59375 31.585938 "/>
<path style=" stroke:none;fill-rule:nonzero;fill:rgb(0%,0%,0%);fill-opacity:1;" d="M 36.285156 29.820312 C 35.542969 30.023438 34.988281 30.472656 34.664062 31.144531 C 33.785156 32.917969 34.882812 34.90625 36.8125 35.039062 C 37.648438 35.097656 38.421875 34.789062 38.972656 34.183594 C 39.308594 33.816406 39.453125 33.535156 39.566406 33.046875 C 39.882812 31.707031 39.269531 30.441406 38.054688 29.902344 C 37.660156 29.734375 36.746094 29.6875 36.285156 29.820312 Z M 37.558594 31.640625 C 38.277344 32.113281 38.078125 33.199219 37.230469 33.421875 C 36.898438 33.511719 36.550781 33.402344 36.25 33.125 C 36.027344 32.914062 36 32.863281 35.976562 32.53125 C 35.941406 32 36.132812 31.683594 36.613281 31.507812 C 36.910156 31.398438 37.265625 31.449219 37.558594 31.640625 Z M 37.558594 31.640625 "/>
<path style=" stroke:none;fill-rule:nonzero;fill:rgb(0%,0%,0%);fill-opacity:1;" d="M 27.917969 35.996094 C 27.652344 36.304688 27.664062 36.539062 27.960938 36.824219 C 28.335938 37.1875 28.898438 37.507812 29.527344 37.71875 C 30.078125 37.910156 30.175781 37.925781 30.941406 37.925781 C 32.199219 37.933594 33.121094 37.648438 33.90625 36.988281 C 34.414062 36.570312 34.464844 36.328125 34.128906 35.976562 C 33.882812 35.722656 33.726562 35.730469 33.347656 36.03125 C 32.636719 36.59375 31.921875 36.835938 31 36.835938 C 30.0625 36.832031 29.335938 36.582031 28.675781 36.03125 C 28.3125 35.722656 28.160156 35.714844 27.917969 35.996094 Z M 27.917969 35.996094 "/>
</g>
</svg>
